<svg xmlns="http://www.w3.org/2000/svg" width="512" height="512" viewBox="0 0 512 512" role="img" aria-labelledby="title desc">
  <title id="title">Spotit leg bandage logo</title>
  <desc id="desc">Spotit logo showing a leg wound dressing with a green clinical mark.</desc>
  <rect width="512" height="512" fill="#005eb8"/>
  <g transform="translate(256 266) rotate(7) scale(1.78) translate(-256 -266)">
    <path d="M315 74c51 62 56 130 29 219l-44 141c-10 30-41 47-71 37l-44-14c-31-10-48-42-38-73l45-143c10-32 4-61-15-91l-9-13c-13-19-7-46 12-59 42-28 102-21 135-4Z" fill="#c98f72" stroke="#70412f" stroke-width="22" stroke-linejoin="round"/>
    <path d="M175 311l164 47-23 76c-10 31-42 48-73 38l-45-14c-31-10-48-42-38-73l15-74Z" fill="#b87358"/>
    <path d="M185 266l166 49-26 82-168-49 28-82Z" fill="#ffffff" stroke="#005f2c" stroke-width="34" stroke-linejoin="round"/>
    <path d="M205 295l128 37M194 330l128 37" stroke="#5d9fc8" stroke-width="18" stroke-linecap="round"/>
    <path d="M256 309v58M227 338h58" stroke="#005f2c" stroke-width="34" stroke-linecap="round"/>
  </g>
</svg>
