<svg xmlns="http://www.w3.org/2000/svg" width="1600" height="900" viewBox="0 0 1600 900" role="img" aria-labelledby="title desc">
  <title id="title">Spotit wound care logo</title>
  <desc id="desc">Clean Spotit wound care logo with a professional leg icon, plaster tape, soaked wound pad, bold Spotit wordmark, and orange swoosh underline.</desc>
  <defs>
    <linearGradient id="skinGradient" x1="690" y1="105" x2="860" y2="520" gradientUnits="userSpaceOnUse">
      <stop offset="0" stop-color="#ffd8c1"/>
      <stop offset="0.58" stop-color="#f2ad87"/>
      <stop offset="1" stop-color="#df8a67"/>
    </linearGradient>
    <filter id="softShadow" x="-20%" y="-20%" width="140%" height="140%">
      <feDropShadow dx="0" dy="16" stdDeviation="18" flood-color="#08324f" flood-opacity="0.14"/>
    </filter>
  </defs>

  <rect width="1600" height="900" fill="none"/>

  <g filter="url(#softShadow)">
    <path d="M742 104c-35 44-50 94-46 148l13 163c5 67 59 120 126 120h54c38 0 69-31 69-69 0-32-24-60-56-66l-77-14-8-142c-4-65-27-112-67-144-3-2-6-1-8 4Z" fill="url(#skinGradient)" stroke="#8a4d3b" stroke-width="12" stroke-linejoin="round"/>
    <path d="M715 405c28 31 68 48 118 48h53c18 0 33 15 33 33 0 17-14 31-31 31h-70c-66 0-120-44-137-107-2-8 27-12 34-5Z" fill="#ffd8c1" stroke="#8a4d3b" stroke-width="12" stroke-linejoin="round"/>
    <circle cx="792" cy="474" r="18" fill="#7b1512" opacity="1"/>
    <circle cx="792" cy="474" r="12" fill="#c9271e" opacity="1"/>
    <circle cx="787" cy="468" r="4" fill="#ff8a78" opacity="0.76"/>
    <path d="M748 272c12-17 39-19 55-3 11 11 12 29 1 41-15 17-43 14-56-2-8-10-8-23 0-36Z" fill="#b42318" opacity="0.9"/>
    <path d="M700 258l142 72" stroke="#f4d8bd" stroke-width="54" stroke-linecap="round"/>
    <path d="M700 258l142 72" stroke="#d0a079" stroke-width="8" stroke-linecap="round" stroke-dasharray="4 18"/>
    <rect x="735" y="266" width="82" height="54" rx="15" transform="rotate(27 776 293)" fill="#fffaf2" stroke="#c99166" stroke-width="6"/>
    <circle cx="776" cy="293" r="24" fill="#f4ebe0"/>
    <circle cx="776" cy="293" r="18" fill="#7b1512" opacity="0.96"/>
    <circle cx="776" cy="293" r="12" fill="#c9271e" opacity="1"/>
  </g>

  <text x="750" y="735" text-anchor="middle" font-family="Arial Rounded MT Bold, Trebuchet MS, Arial, sans-serif" font-size="182" font-style="italic" font-weight="950" letter-spacing="0" stroke-width="2.5" paint-order="stroke fill">
    <tspan fill="#f15a24" stroke="#f15a24">Spot</tspan><tspan fill="#0072ce" stroke="#0072ce">it</tspan>
  </text>
  <path d="M622 805c78 20 194 20 274-3" fill="none" stroke="#f15a24" stroke-width="12" stroke-linecap="round"/>
</svg>
