<svg xmlns="http://www.w3.org/2000/svg" width="1200" height="630" viewBox="0 0 1200 630">
  <rect width="1200" height="630" fill="#fff"/>
  <text x="118" y="360" font-family="Arial,Helvetica,sans-serif" font-size="106" font-style="italic" font-weight="900" fill="#ff6a00">Spot</text>
  <rect x="365" y="305" width="14" height="53" rx="7" fill="#005eb8"/>
  <circle cx="372" cy="285" r="10" fill="#ff6a00"/>
  <text x="386" y="360" font-family="Arial,Helvetica,sans-serif" font-size="106" font-style="italic" font-weight="900" fill="#005eb8">t</text>
  <g transform="translate(432 224) scale(.68)" stroke-linecap="round" stroke-linejoin="round">
    <path d="M94 18 C128 30 151 58 159 92 C169 135 167 181 154 214 C146 235 129 247 108 247 L51 247 C24 247 4 229 4 205 C4 182 21 165 44 164 L74 164 C84 164 91 157 90 147 L77 54 C74 31 79 16 94 18 Z" fill="#f4b184" stroke="#6b3f32" stroke-width="8"/>
    <path d="M44 164 L186 164 C212 164 232 181 236 204 L267 217 L236 231 C231 251 212 264 187 264 L42 264 C18 264 0 246 0 223 C0 190 17 166 44 164 Z" fill="#ffd7bf" stroke="#6b3f32" stroke-width="8"/>
    <g transform="rotate(22 112 133)">
      <rect x="37" y="107" width="150" height="56" rx="10" fill="#fff" stroke="#c49a72" stroke-width="6"/>
      <path d="M53 123 H91 M132 147 H174" stroke="#e9d7c3" stroke-width="6"/>
    </g>
    <circle cx="113" cy="135" r="20" fill="#ffe9db"/><circle cx="113" cy="135" r="13" fill="#b71c1c"/><circle cx="113" cy="135" r="7" fill="#f4512c"/>
    <circle cx="122" cy="225" r="17" fill="#ffe9db"/><circle cx="122" cy="225" r="11" fill="#b71c1c"/><circle cx="122" cy="225" r="6" fill="#f4512c"/>
  </g>
  <path d="M146 388 C235 402 335 404 421 392" fill="none" stroke="#ff6a00" stroke-width="7" stroke-linecap="round"/>
  <text x="600" y="468" text-anchor="middle" font-family="Arial,Helvetica,sans-serif" font-size="30" font-weight="800" fill="#005eb8">Capture wounds, assess and report</text>
</svg>
