<svg xmlns="http://www.w3.org/2000/svg" width="1400" height="900" viewBox="0 0 1400 900" role="img" aria-labelledby="title desc">
  <title id="title">Spotit two-leg wound care logo</title>
  <desc id="desc">Spotit wound care logo with two friendly smiling leg wound characters, yellow excitement marks, gradient Spotit wordmark, and orange swoosh underline.</desc>
  <defs>
    <linearGradient id="spotGradient" x1="360" y1="600" x2="760" y2="760" gradientUnits="userSpaceOnUse">
      <stop offset="0" stop-color="#ff9b36"/>
      <stop offset="0.55" stop-color="#f15a24"/>
      <stop offset="1" stop-color="#c9271e"/>
    </linearGradient>
    <linearGradient id="itGradient" x1="760" y1="600" x2="980" y2="760" gradientUnits="userSpaceOnUse">
      <stop offset="0" stop-color="#1ca7ec"/>
      <stop offset="0.55" stop-color="#0072ce"/>
      <stop offset="1" stop-color="#003f7d"/>
    </linearGradient>
    <filter id="softShadow" x="-20%" y="-20%" width="140%" height="140%">
      <feDropShadow dx="0" dy="16" stdDeviation="18" flood-color="#08324f" flood-opacity="0.16"/>
    </filter>
  </defs>
  <rect width="1400" height="900" fill="none"/>

  <g filter="url(#softShadow)">
    <g transform="translate(408 116)">
      <path d="M105 16c-37 33-58 79-56 132l5 170c2 69 56 124 125 124h29c47 0 85-38 85-85V164c0-58-29-113-77-150-31-24-76-23-111 2Z" fill="#ff625a" stroke="#b32026" stroke-width="14" stroke-linejoin="round"/>
      <path d="M59 356c35 23 78 35 126 35h30c48 0 87 38 87 85 0 30-24 54-54 54H128c-65 0-118-53-118-118 0-32 18-53 49-56Z" fill="#ffffff" stroke="#b32026" stroke-width="13" stroke-linejoin="round"/>
      <path d="M73 389h163M58 426h171" stroke="#ffd0cb" stroke-width="13" stroke-linecap="round"/>
      <circle cx="130" cy="156" r="11" fill="#452126"/>
      <circle cx="211" cy="156" r="11" fill="#452126"/>
      <path d="M142 194c18 21 49 21 67 0" fill="none" stroke="#452126" stroke-width="10" stroke-linecap="round"/>
      <path d="M116 267c18-30 59-34 84-9 16 16 18 42 2 61-21 24-58 21-78 2-15-14-18-34-8-54Z" fill="#b42318" stroke="#7b1512" stroke-width="8" stroke-linejoin="round"/>
      <path d="M132 278c10-16 33-19 47-6 9 8 10 22 2 31-12 13-32 12-43 2-8-7-9-17-6-27Z" fill="#ff8a78"/>
      <path d="M90 248l137 88" stroke="#f4d9bd" stroke-width="38" stroke-linecap="round"/>
      <path d="M90 248l137 88" stroke="#c58e65" stroke-width="8" stroke-dasharray="3 16" stroke-linecap="round"/>
      <rect x="137" y="272" width="55" height="38" rx="10" transform="rotate(33 164 291)" fill="#fff5e8" stroke="#d2a075" stroke-width="5"/>
      <path d="M106 331c12 24 2 41-11 42-13 0-24-16-10-40l11-21 10 19Z" fill="#c9271e"/>
      <path d="M224 318c8 17 1 29-8 29-9 0-17-11-8-28l8-15 8 14Z" fill="#c9271e"/>
    </g>

    <g transform="translate(660 116)">
      <path d="M216 16c37 33 58 79 56 132l-5 170c-2 69-56 124-125 124h-29c-47 0-85-38-85-85V164c0-58 29-113 77-150 31-24 76-23 111 2Z" fill="#2c8fd8" stroke="#005eb8" stroke-width="14" stroke-linejoin="round"/>
      <path d="M263 356c-35 23-78 35-126 35h-30c-48 0-87 38-87 85 0 30 24 54 54 54h120c65 0 118-53 118-118 0-32-18-53-49-56Z" fill="#ffffff" stroke="#005eb8" stroke-width="13" stroke-linejoin="round"/>
      <path d="M249 389H86M264 426H93" stroke="#c7e6ff" stroke-width="13" stroke-linecap="round"/>
      <circle cx="111" cy="156" r="11" fill="#14395f"/>
      <circle cx="192" cy="156" r="11" fill="#14395f"/>
      <path d="M123 194c18 21 49 21 67 0" fill="none" stroke="#14395f" stroke-width="10" stroke-linecap="round"/>
      <path d="M119 263c18-26 57-27 79-2 14 17 14 42-3 59-23 22-59 16-77-5-13-16-13-35 1-52Z" fill="#b42318" stroke="#7b1512" stroke-width="8" stroke-linejoin="round"/>
      <path d="M139 275c10-13 31-14 43-1 8 9 8 22-2 31-12 11-31 8-41-3-7-8-7-18 0-27Z" fill="#ff8a78"/>
      <path d="M86 336l142-89" stroke="#f4d9bd" stroke-width="38" stroke-linecap="round"/>
      <path d="M86 336l142-89" stroke="#c58e65" stroke-width="8" stroke-dasharray="3 16" stroke-linecap="round"/>
      <rect x="130" y="272" width="55" height="38" rx="10" transform="rotate(-32 157 291)" fill="#fff5e8" stroke="#d2a075" stroke-width="5"/>
      <path d="M110 329c11 22 2 37-10 37s-22-14-9-36l10-19 9 18Z" fill="#c9271e"/>
    </g>
  </g>

  <g fill="none" stroke="#ffcc33" stroke-width="16" stroke-linecap="round">
    <path d="M444 106l-34-40"/>
    <path d="M512 82l-8-54"/>
    <path d="M588 92l34-48"/>
    <path d="M713 92l-34-48"/>
    <path d="M789 82l8-54"/>
    <path d="M857 106l34-40"/>
  </g>

  <text x="700" y="720" text-anchor="middle" font-family="Cooper Black, Arial Rounded MT Bold, Trebuchet MS, Arial, sans-serif" font-size="210" font-weight="900" letter-spacing="-5">
    <tspan fill="url(#spotGradient)">Spot</tspan><tspan fill="url(#itGradient)">it</tspan>
  </text>
  <path d="M445 784c150 54 360 56 490-10" fill="none" stroke="#f15a24" stroke-width="22" stroke-linecap="round"/>
</svg>
