<svg xmlns="http://www.w3.org/2000/svg" width="1600" height="1000" viewBox="0 0 1600 1000" role="img" aria-labelledby="title desc">
  <title id="title">Spotit marketing-safe dashboard preview</title>
  <desc id="desc">A marketing-safe Spotit app visual with hidden patient names, one example patient named Lynda O, an improving wound status, and contact email lyn@spotit.app.</desc>
  <defs>
    <filter id="softShadow" x="-20%" y="-20%" width="140%" height="140%">
      <feDropShadow dx="0" dy="20" stdDeviation="22" flood-color="#003d78" flood-opacity="0.16"/>
    </filter>
    <linearGradient id="rail" x1="0" y1="0" x2="0" y2="1">
      <stop offset="0" stop-color="#005eb8"/>
      <stop offset="1" stop-color="#003d78"/>
    </linearGradient>
    <linearGradient id="screen" x1="0" y1="0" x2="1" y2="1">
      <stop offset="0" stop-color="#f7fbff"/>
      <stop offset="1" stop-color="#f2fbf6"/>
    </linearGradient>
  </defs>

  <rect width="1600" height="1000" fill="#ffffff"/>
  <rect x="92" y="70" width="1416" height="860" rx="42" fill="#f5f9fc" filter="url(#softShadow)"/>
  <rect x="120" y="100" width="1360" height="800" rx="30" fill="url(#screen)"/>

  <rect x="120" y="100" width="126" height="800" rx="30" fill="url(#rail)"/>
  <rect x="142" y="128" width="82" height="82" rx="16" fill="#ffffff"/>
  <circle cx="183" cy="169" r="30" fill="#e8f3fb"/>
  <ellipse cx="183" cy="165" rx="22" ry="28" fill="#d8b29b" stroke="#8a5a45" stroke-width="2"/>
  <ellipse cx="183" cy="165" rx="11" ry="14" fill="#f2c9b5"/>
  <ellipse cx="183" cy="165" rx="5" ry="7" fill="#b42318" opacity="0.82"/>
  <path d="M163 187h40v12h-40z" fill="#ffffff" stroke="#007f3b" stroke-width="3"/>
  <circle cx="183" cy="193" r="4" fill="#007f3b"/>
  <text x="183" y="234" text-anchor="middle" font-family="Arial, sans-serif" font-size="18" font-weight="900" fill="#ffffff">Spotit</text>

  <g font-family="Arial, sans-serif" fill="#ffffff" font-size="15" font-weight="800">
    <text x="183" y="304" text-anchor="middle">Dashboard</text>
    <text x="183" y="372" text-anchor="middle">Caseload</text>
    <text x="183" y="440" text-anchor="middle">Reviews</text>
    <text x="183" y="508" text-anchor="middle">Reports</text>
    <text x="183" y="576" text-anchor="middle">Help</text>
  </g>

  <rect x="286" y="140" width="1150" height="98" rx="20" fill="#ffffff"/>
  <text x="326" y="182" font-family="Arial, sans-serif" font-size="34" font-weight="900" fill="#1f2f3a">Spotit wound care</text>
  <text x="326" y="216" font-family="Arial, sans-serif" font-size="21" font-weight="700" fill="#536471">Capture wounds, assess, plan and report</text>
  <text x="1400" y="183" text-anchor="end" font-family="Arial, sans-serif" font-size="22" font-weight="900" fill="#005eb8">Contact: lyn@spotit.app</text>
  <text x="1400" y="216" text-anchor="end" font-family="Arial, sans-serif" font-size="17" font-weight="700" fill="#536471">Marketing-safe preview</text>

  <rect x="286" y="270" width="700" height="550" rx="22" fill="#ffffff" stroke="#d8e3ea" stroke-width="2"/>
  <text x="326" y="322" font-family="Arial, sans-serif" font-size="25" font-weight="900" fill="#1f2f3a">Displayed patient</text>
  <text x="326" y="365" font-family="Arial, sans-serif" font-size="42" font-weight="900" fill="#005eb8">Lynda O</text>
  <rect x="326" y="390" width="150" height="38" rx="19" fill="#e4f5eb" stroke="#007f3b" stroke-width="2"/>
  <text x="401" y="416" text-anchor="middle" font-family="Arial, sans-serif" font-size="18" font-weight="900" fill="#007f3b">Improving</text>

  <rect x="326" y="470" width="270" height="210" rx="18" fill="#f4d4c2" stroke="#d8b29b" stroke-width="2"/>
  <ellipse cx="461" cy="575" rx="72" ry="48" fill="#e7bda4"/>
  <ellipse cx="461" cy="575" rx="39" ry="25" fill="#f2c9b5"/>
  <ellipse cx="461" cy="575" rx="18" ry="11" fill="#b42318" opacity="0.78"/>
  <path d="M406 638c39 25 84 24 120 0" fill="none" stroke="#007f3b" stroke-width="8" stroke-linecap="round"/>
  <text x="326" y="724" font-family="Arial, sans-serif" font-size="20" font-weight="900" fill="#1f2f3a">Wound progress</text>
  <rect x="326" y="746" width="600" height="22" rx="11" fill="#e7eef3"/>
  <rect x="326" y="746" width="438" height="22" rx="11" fill="#007f3b"/>
  <text x="326" y="796" font-family="Arial, sans-serif" font-size="19" font-weight="700" fill="#536471">Trend: improving wound. Review date and care frequency set by clinician input.</text>

  <rect x="1030" y="270" width="406" height="550" rx="22" fill="#ffffff" stroke="#d8e3ea" stroke-width="2"/>
  <text x="1070" y="322" font-family="Arial, sans-serif" font-size="25" font-weight="900" fill="#1f2f3a">Privacy-safe caseload</text>
  <text x="1070" y="358" font-family="Arial, sans-serif" font-size="18" font-weight="700" fill="#536471">Visible patient names hidden for marketing.</text>

  <g font-family="Arial, sans-serif">
    <rect x="1070" y="400" width="326" height="70" rx="14" fill="#f7fbff" stroke="#d8e3ea"/>
    <text x="1095" y="432" font-size="19" font-weight="900" fill="#1f2f3a">Patient hidden</text>
    <text x="1095" y="458" font-size="15" font-weight="700" fill="#536471">Status shown only after consent</text>
    <rect x="1070" y="492" width="326" height="70" rx="14" fill="#f7fbff" stroke="#d8e3ea"/>
    <text x="1095" y="524" font-size="19" font-weight="900" fill="#1f2f3a">Patient hidden</text>
    <text x="1095" y="550" font-size="15" font-weight="700" fill="#536471">Clinical details anonymised</text>
    <rect x="1070" y="584" width="326" height="70" rx="14" fill="#f7fbff" stroke="#d8e3ea"/>
    <text x="1095" y="616" font-size="19" font-weight="900" fill="#1f2f3a">Patient hidden</text>
    <text x="1095" y="642" font-size="15" font-weight="700" fill="#536471">Marketing-safe example</text>
  </g>

  <rect x="1070" y="704" width="326" height="70" rx="14" fill="#e8f3fb" stroke="#005eb8" stroke-width="2"/>
  <text x="1233" y="735" text-anchor="middle" font-family="Arial, sans-serif" font-size="19" font-weight="900" fill="#005eb8">Statistics hidden</text>
  <text x="1233" y="761" text-anchor="middle" font-family="Arial, sans-serif" font-size="15" font-weight="800" fill="#536471">Caseload map hidden</text>

  <rect x="286" y="850" width="1150" height="44" rx="22" fill="#005eb8"/>
  <text x="861" y="879" text-anchor="middle" font-family="Arial, sans-serif" font-size="20" font-weight="900" fill="#ffffff">Spotit supports wound capture, structured assessment, progress monitoring and professional reporting.</text>
</svg>
